<?xml version="1.0" encoding="utf-8"?>
<!-- Generator: Adobe Illustrator 16.0.0, SVG Export Plug-In . SVG Version: 6.00 Build 0)  -->
<!DOCTYPE svg PUBLIC "-//W3C//DTD SVG 1.1//EN" "http://www.w3.org/Graphics/SVG/1.1/DTD/svg11.dtd">
<svg version="1.1" id="Layer_1" xmlns="http://www.w3.org/2000/svg" xmlns:xlink="http://www.w3.org/1999/xlink" x="0px" y="0px"
	 width="119.5px" height="62.75px" viewBox="0 0 119.5 62.75" enable-background="new 0 0 119.5 62.75" xml:space="preserve">
<g>
	<path fill-rule="evenodd" clip-rule="evenodd" fill="#FFFFFF" d="M1.31,24.433c0.834-3.432,2.588-6.241,5.511-8.296
		c5.314-3.736,13.562-3.153,18.099,1.314c0.34,0.336,0.625,0.727,0.956,1.073c0.54,0.566,0.545,1.017-0.222,1.376
		c-0.434,0.204-0.869,0.421-1.262,0.693c-1.763,1.225-3.238,1.774-5.309,0.039c-2.171-1.82-6.521-1.279-8.707,0.417
		c-2.424,1.88-3.387,4.88-2.506,7.949c0.691,2.404,2.361,3.837,4.707,4.523c1.328,0.39,2.692,0.335,4.047,0.143
		c0.985-0.14,1.722-0.474,2.3-1.128c0.312-0.354,0.579-0.8,0.813-1.359c2.623-6.278,7.502-9.546,14.297-9.912
		c1.6-0.087,1.604-0.042,1.61-1.621c0.006-1.279,0.022-2.561,0-3.84c-0.015-0.868,0.378-1.229,1.233-1.209
		c1.2,0.026,2.403,0.057,3.6-0.012c1.157-0.066,1.771,0.303,1.628,1.551c-0.026,0.229,0.034,0.468,0.054,0.68
		c0.405,0.168,0.559-0.135,0.748-0.306c2.332-2.106,5.106-2.76,8.137-2.351c2.168,0.293,3.871,1.459,5.107,3.263
		c0.407,0.595,0.678,0.759,1.231,0.095c2.356-2.827,5.474-3.809,9.024-3.359c1.262,0.158,1.398-0.299,1.387-1.324
		c-0.039-3.199-0.016-6.4-0.014-9.6c0-2.129,0-2.129,2.186-2.129c0.88,0,1.764,0.053,2.639-0.014
		c1.092-0.082,1.477,0.338,1.465,1.44c-0.045,4.358-0.018,8.72-0.018,13.079c0,0.422,0,0.846,0,1.352
		c0.287-0.102,0.418-0.111,0.492-0.18c5.701-5.214,15.318-2.956,18.035,5.602c0.523,1.646,0.359,1.627,1.936,0.792
		c7-3.705,15.688-2.01,20.436,3.96c5.959,7.495,3.65,18.219-4.885,22.747c-3.379,1.792-6.947,2.344-10.693,1.659
		c-0.846-0.155-1.387-0.059-1.912,0.714c-0.494,0.729-0.271,1.177,0.121,1.805c1.025,1.64,1.053,3.351-0.043,4.966
		c-1.225,1.808-3.01,2.481-5.123,2.087c-1.922-0.358-3.494-1.489-3.707-3.44c-0.209-1.936-1.268-2.298-2.807-2.695
		c-12.158-3.141-24.302-6.339-36.438-9.564c-1.126-0.299-1.766-0.061-2.556,0.815c-4.229,4.688-9.554,6.508-15.711,5.194
		c-5.965-1.272-10.065-4.883-11.907-10.794c-0.166-0.531-0.348-0.86-0.628-1.042c-0.28-0.181-0.658-0.213-1.216-0.148
		c-4.119,0.475-8.086,0.06-11.469-2.68c-2.146-1.737-3.57-3.965-4.324-6.621c-0.109-0.383-0.229-0.763-0.344-1.145
		C1.31,27.473,1.31,25.952,1.31,24.433z M74.181,37.033c-0.064,0.411-0.143,0.604-0.117,0.783c0.166,1.267-0.463,1.589-1.613,1.525
		c-1.355-0.075-2.72-0.063-4.076-0.005c-1.057,0.047-1.386-0.387-1.374-1.411c0.042-3.678,0.034-7.355,0.007-11.033
		c-0.012-1.478-0.095-2.963-0.507-4.393c-0.532-1.845-1.616-2.629-3.507-2.638c-2.629-0.011-4.545,1.729-4.986,4.556
		c-0.178,1.146-0.287,2.296-0.28,3.461c0.021,3.358-0.023,6.717,0.023,10.074c0.015,1.051-0.366,1.437-1.399,1.384
		c-1.156-0.06-2.32-0.062-3.477,0.001c-1.078,0.058-1.482-0.327-1.466-1.442c0.054-3.638,0.024-7.275,0.013-10.914
		c-0.004-1.32-0.135-2.634-0.426-3.923c-0.34-1.493-1.07-2.727-2.664-3.086c-1.75-0.396-3.348-0.006-4.592,1.372
		c-1.277,1.413-1.225,1.775,0.313,2.828c5.986,4.102,8.157,11.667,5.217,18.358c-0.4,0.912-0.136,1.161,0.715,1.383
		c12.684,3.311,25.363,6.642,38.041,9.982c0.68,0.179,1.18,0.14,1.697-0.435c1.383-1.531,3.127-2.039,5.115-1.447
		c0.809,0.241,1.361,0.059,1.631-0.703c0.291-0.82-0.543-0.763-0.924-0.942c-4.537-2.144-7.551-5.559-8.775-10.461
		c-0.207-0.831-0.508-1.021-1.328-0.703c-1.578,0.61-3.221,0.836-4.934,0.691C78.132,39.694,76.181,38.591,74.181,37.033z
		 M48.095,36.446c-0.004-7.127-6.091-12.96-13.486-12.925c-7.459,0.036-13.4,5.793-13.395,12.979
		c0.007,7.228,5.908,12.879,13.443,12.875C42.13,49.372,48.101,43.628,48.095,36.446z M88.899,36.533
		c0.01,7.208,5.932,12.851,13.475,12.842c7.465-0.009,13.416-5.764,13.404-12.962c-0.012-7.073-6.027-12.861-13.395-12.892
		C94.897,23.492,88.89,29.289,88.899,36.533z M80.442,34.047c3.865-0.01,6.549-2.956,6.523-7.161
		c-0.025-4.113-2.75-7.006-6.594-6.996c-3.904,0.01-6.582,2.921-6.564,7.132C73.825,31.25,76.476,34.057,80.442,34.047z
		 M93.415,52.734c-2.334,0.003-4.033,1.617-4.012,3.808c0.021,2.134,1.746,3.82,3.928,3.844c2.232,0.023,4.154-1.827,4.109-3.957
		C97.397,54.3,95.687,52.731,93.415,52.734z"/>
</g>
</svg>
